<svg width="61" height="61" viewBox="0 0 61 61" fill="none" xmlns="http://www.w3.org/2000/svg">
<g clip-path="url(#clip0_141_21)">
<path fill-rule="evenodd" clip-rule="evenodd" d="M14.3598 34.3531C15.921 29.5553 18.7344 23.4065 23.7507 18.3902C33.5857 8.55514 47.8822 7.10087 48.244 7.06447C48.4357 7.04519 48.8327 7.02592 49.3002 7.18399C49.8337 7.36444 50.2985 7.72689 50.6037 8.19974C51.1245 8.98249 54.0525 13.9065 50.126 19.8561C49.931 20.1515 49.6962 20.4395 49.4357 20.7178C49.4675 21.0185 49.4447 21.3301 49.36 21.6393C48.888 23.3631 48.2777 25.1712 47.4877 26.9796C46.109 30.1368 44.1675 33.3288 41.4285 36.0678C36.3035 41.1928 29.575 43.5468 24.3194 44.6448C21.6667 45.1991 19.3229 45.4471 17.6372 45.5568C17.4547 45.5688 17.2797 45.5791 17.1127 45.5881C17.0343 46.2071 16.3392 52.4068 16.3392 53.4791C16.3392 54.8598 15.22 55.9791 13.8392 55.9791C12.4585 55.9791 11.3392 54.8596 11.3392 53.4791C11.3392 52.0511 11.63 49.3053 11.8927 47.0786C12.4035 42.7496 13.0061 38.5128 14.3598 34.3531ZM45.9527 17.1018C47.27 15.106 47.2505 13.4019 46.989 12.304C43.173 12.9915 33.9427 15.2692 27.2862 21.9258C23.0276 26.1843 20.5377 31.5261 19.1144 35.9001C18.5362 37.6771 18.142 39.2693 17.8787 40.5266C19.326 40.4121 21.2066 40.1871 23.2969 39.7506C28.097 38.7478 33.743 36.6823 37.8927 32.5323C40.0165 30.4088 41.6005 27.8881 42.7775 25.2679C40.3365 26.5683 37.7317 27.7333 35.88 28.3506C34.57 28.7873 33.1542 28.0793 32.7177 26.7696C32.281 25.4597 32.989 24.0439 34.2987 23.6072C35.985 23.0452 38.6952 21.8234 41.1845 20.4433C42.4202 19.7583 43.5497 19.0626 44.4377 18.4238C45.3962 17.7344 45.8382 17.2755 45.9527 17.1018Z" fill="#6AB6F6"/>
</g>
<defs>
<clipPath id="clip0_141_21">
<rect width="60" height="60" fill="white" transform="translate(0.0892334 0.979492)"/>
</clipPath>
</defs>
</svg>
